<svg width="1360" height="724" viewBox="0 0 1360 724" fill="none" xmlns="http://www.w3.org/2000/svg">
<path d="M345.319 723.589V628.589H176.667C176.667 628.589 175.96 628.289 175.567 628.289C133.444 628.289 99.2575 595.945 99.2575 555.554C99.2575 555.253 99.2575 554.651 99.2575 554.275V0H0V515.839L217.062 723.589H345.319Z" fill="#333333"/>
<path d="M648.329 94.9992L549.071 0H420.814V94.9992H589.466C589.466 94.9992 590.173 94.9992 590.566 94.9992H591.666C633.004 95.601 666.325 127.493 666.797 167.057V555.027C666.797 555.027 666.797 555.328 666.797 555.629C666.797 595.945 632.611 628.665 590.487 628.665C590.094 628.665 589.78 628.966 589.387 628.966H420.736V723.965H548.993L766.055 516.215V207.75L666.797 112.75L648.172 94.924L648.329 94.9992Z" fill="#333333"/>
<path d="M1360 0H1219.64L841.472 362.02L878.173 397.071L911.652 429.114L1219.64 723.965H1360L981.753 362.02L1360 0Z" fill="#333333"/>
</svg>
