<svg width="36" height="37" viewBox="0 0 36 37" fill="none" xmlns="http://www.w3.org/2000/svg">
<rect width="36" height="36" rx="18" transform="matrix(-1 0 0 1 36 0.964722)" fill="white"/>
<path d="M13.8 8.76477H22.2C25.4 8.76477 28 11.3648 28 14.5648V22.9648C28 24.503 27.3889 25.9783 26.3012 27.066C25.2135 28.1537 23.7383 28.7648 22.2 28.7648H13.8C10.6 28.7648 8 26.1648 8 22.9648V14.5648C8 13.0265 8.61107 11.5513 9.69878 10.4636C10.7865 9.37584 12.2617 8.76477 13.8 8.76477ZM13.6 10.7648C12.6452 10.7648 11.7295 11.1441 11.0544 11.8192C10.3793 12.4943 10 13.41 10 14.3648V23.1648C10 25.1548 11.61 26.7648 13.6 26.7648H22.4C23.3548 26.7648 24.2705 26.3855 24.9456 25.7104C25.6207 25.0352 26 24.1195 26 23.1648V14.3648C26 12.3748 24.39 10.7648 22.4 10.7648H13.6ZM23.25 12.2648C23.5815 12.2648 23.8995 12.3965 24.1339 12.6309C24.3683 12.8653 24.5 13.1832 24.5 13.5148C24.5 13.8463 24.3683 14.1642 24.1339 14.3987C23.8995 14.6331 23.5815 14.7648 23.25 14.7648C22.9185 14.7648 22.6005 14.6331 22.3661 14.3987C22.1317 14.1642 22 13.8463 22 13.5148C22 13.1832 22.1317 12.8653 22.3661 12.6309C22.6005 12.3965 22.9185 12.2648 23.25 12.2648ZM18 13.7648C19.3261 13.7648 20.5979 14.2916 21.5355 15.2292C22.4732 16.1669 23 17.4387 23 18.7648C23 20.0909 22.4732 21.3626 21.5355 22.3003C20.5979 23.238 19.3261 23.7648 18 23.7648C16.6739 23.7648 15.4021 23.238 14.4645 22.3003C13.5268 21.3626 13 20.0909 13 18.7648C13 17.4387 13.5268 16.1669 14.4645 15.2292C15.4021 14.2916 16.6739 13.7648 18 13.7648ZM18 15.7648C17.2044 15.7648 16.4413 16.0808 15.8787 16.6434C15.3161 17.2061 15 17.9691 15 18.7648C15 19.5604 15.3161 20.3235 15.8787 20.8861C16.4413 21.4487 17.2044 21.7648 18 21.7648C18.7956 21.7648 19.5587 21.4487 20.1213 20.8861C20.6839 20.3235 21 19.5604 21 18.7648C21 17.9691 20.6839 17.2061 20.1213 16.6434C19.5587 16.0808 18.7956 15.7648 18 15.7648Z" fill="black"/>
</svg>
