<svg width="36" height="37" viewBox="0 0 36 37" fill="none" xmlns="http://www.w3.org/2000/svg">
<rect width="36" height="36" rx="18" transform="matrix(-1 0 0 1 36 0.964722)" fill="white"/>
<path d="M22.2851 9.7198C21.9283 9.48202 21.5012 9.3727 21.0741 9.4098L10.0141 10.3708C9.76748 10.3923 9.53792 10.5055 9.37073 10.6881C9.20355 10.8706 9.1109 11.1093 9.11108 11.3568V22.9318C9.11108 23.3398 9.24408 23.7378 9.48908 24.0648L12.2561 27.7548C12.356 27.8877 12.4879 27.9933 12.6394 28.0618C12.7909 28.1303 12.9573 28.1595 13.1231 28.1468L25.9761 27.1578C26.2245 27.1387 26.4565 27.0265 26.6258 26.8437C26.795 26.6609 26.8891 26.4209 26.8891 26.1718V13.2918C26.889 13.1373 26.8509 12.9851 26.778 12.8489C26.7051 12.7127 26.5996 12.5965 26.4711 12.5108L22.2851 9.7198ZM21.2281 11.1798C21.2533 11.1782 21.2784 11.1852 21.2991 11.1998L24.0451 13.0298L13.8381 13.8458L11.9781 11.9858L21.2281 11.1798ZM25.1111 25.4418L14.3891 26.2668V15.5848L25.1111 14.7268V25.4418ZM10.8901 13.4108L12.6121 15.1328V25.2648L10.9121 22.9978C10.8979 22.9787 10.8902 22.9556 10.8901 22.9318V13.4108ZM17.9801 16.8878L16.0031 17.0178V24.5798L17.9991 24.4498V20.1128L21.5111 24.2818L23.4871 24.1518V16.5898L21.4911 16.7198V21.0568L17.9801 16.8878Z" fill="black"/>
</svg>
