<svg width="36" height="37" viewBox="0 0 36 37" fill="none" xmlns="http://www.w3.org/2000/svg">
<rect width="36" height="36" rx="18" transform="matrix(-1 0 0 1 36 0.964722)" fill="white"/>
<path d="M28.9024 24.3278C28.6407 25.3133 27.8696 26.0893 26.8906 26.3527C25.116 26.8313 18.0001 26.8313 18.0001 26.8313C18.0001 26.8313 10.8843 26.8313 9.10965 26.3527C8.13061 26.0893 7.35952 25.3133 7.09781 24.3278C6.62231 22.5417 6.62231 18.8151 6.62231 18.8151C6.62231 18.8151 6.62231 15.0886 7.09781 13.3024C7.35952 12.317 8.13061 11.5733 9.10965 11.3099C10.8843 10.8313 18.0001 10.8313 18.0001 10.8313C18.0001 10.8313 25.1159 10.8313 26.8906 11.3099C27.8696 11.5733 28.6407 12.317 28.9024 13.3024C29.3779 15.0886 29.3779 18.8151 29.3779 18.8151C29.3779 18.8151 29.3779 22.5417 28.9024 24.3278ZM15.6728 15.4317L15.6728 22.1986L21.6203 18.815L15.6728 15.4317Z" fill="black"/>
</svg>
