<svg width="193" height="30" viewBox="0 0 193 30" fill="none" xmlns="http://www.w3.org/2000/svg">
<mask id="mask0_1211_594" style="mask-type:luminance" maskUnits="userSpaceOnUse" x="0" y="0" width="193" height="30">
<path d="M193 0H0V30H193V0Z" fill="white"/>
</mask>
<g mask="url(#mask0_1211_594)">
<path d="M49.14 14.79L49.08 14.71L49.14 14.63V0H45.46V29.52H49.14V14.79Z" fill="white"/>
<path d="M59.2212 29.55H63.7012L53.4312 14.71L63.6512 0.0200195H59.1612L49.0012 14.63L48.9512 14.71L49.0012 14.79L59.2212 29.55Z" fill="white"/>
<path d="M41.05 0.0600586H31.22V3.74006H37.37V21.2901C37.37 23.7801 35.34 25.8001 32.86 25.8001H22.71V29.4901H32.93C32.93 29.4901 32.95 29.4901 32.96 29.4901L35.53 29.5001L41.1 23.9301V20.0401L41.07 20.0701V0.0600586H41.05Z" fill="white"/>
<path d="M9.46 29.49H9.45H18.36V25.81H8.22C5.72 25.81 3.69 23.77 3.69 21.27V0H0V23.92L5.57 29.49H9.46Z" fill="white"/>
<path d="M169.499 0.0300293H165.819V29.49H169.499V0.0300293Z" fill="white"/>
<path d="M97.7402 3.69001H105.15V29.55H108.83V3.69001H116.11V0.0100098H97.7402V3.69001Z" fill="white"/>
<path d="M138.8 19.6V0H135.12V20.8C135.12 23.8 132.68 26.25 129.68 26.25C126.68 26.25 124.23 23.81 124.23 20.8V0H120.54V21.4V23.97L126.11 29.54H133.24L138.81 23.97V21.4V19.6H138.8Z" fill="white"/>
<path d="M161.381 5.60003L155.811 0.0300293H151.921H143.271V29.47H152.01L151.981 29.5H155.871L161.441 23.93L161.391 5.60003H161.381ZM146.951 25.79V3.71003H153.211C155.701 3.71003 157.731 5.74003 157.731 8.24003V21.26C157.731 23.75 155.701 25.78 153.211 25.78H146.951V25.79Z" fill="white"/>
<path d="M86.2198 12.8901C86.2198 12.8901 86.1798 12.8901 86.1698 12.8901H86.0498L83.3198 12.8801C80.7998 12.8801 78.7498 10.8301 78.7498 8.31006C78.7498 5.79006 80.7798 3.76006 83.2798 3.74006H93.3398V0.0600586H83.3198C78.7698 0.0600586 75.0698 3.76006 75.0698 8.30006C75.0698 8.34006 75.0698 8.37006 75.0698 8.41006L75.0498 8.39006V10.9601L80.6198 16.5301H82.9098L82.9298 16.5501C83.0598 16.5501 83.1898 16.5501 83.3198 16.5501H86.2798C88.7798 16.6101 90.7898 18.6601 90.7898 21.1701C90.7898 23.6801 88.8498 25.6501 86.4198 25.7701H75.6598V29.4501H86.1798C90.7498 29.4601 94.4698 25.7401 94.4698 21.1701C94.4698 21.1101 94.4698 21.0501 94.4698 20.9901L94.4998 21.0201V18.4501L88.9298 12.8801H86.2398L86.2198 12.8901Z" fill="white"/>
<path d="M192.24 5.60002L186.669 0.0200195H179.549L173.979 5.59002V23.96L179.549 29.53H186.669L192.24 23.96V5.60002ZM188.559 8.67002V8.91002V20.78C188.559 20.78 188.559 20.82 188.559 20.84V19.61V20.89C188.499 23.84 186.079 26.22 183.119 26.22C180.159 26.22 177.669 23.78 177.669 20.77V10.84V8.67002C177.669 5.67002 180.109 3.22002 183.119 3.22002C186.129 3.22002 188.54 5.64002 188.57 8.62002C188.57 8.64002 188.57 8.65001 188.57 8.66002L188.559 8.67002Z" fill="white"/>
</g>
</svg>
