<svg width="120" height="70" viewBox="0 0 120 70" fill="none" xmlns="http://www.w3.org/2000/svg">
<g clip-path="url(#clip0_1239_1270)">
<path d="M116.186 60.2248C116.186 63.3352 113.663 65.8511 110.56 65.8511C107.457 65.8511 104.934 63.3279 104.934 60.2248V47.9355C104.934 44.8251 107.457 42.3093 110.56 42.3093C113.663 42.3093 116.186 44.8324 116.186 47.9355V60.2248ZM119.993 44.6076L113.881 38.4956H107.225L101.193 44.5496L101.113 44.6294V63.5527L107.225 69.6647H113.881L119.993 63.5527V44.6004V44.6076Z" fill="white"/>
<path d="M44.959 38.4956V63.5527L51.071 69.6647H57.7268L63.8388 63.5527V38.4956H60.0324V60.2248C60.0324 63.3352 57.5093 65.8511 54.4061 65.8511C51.303 65.8511 48.7799 63.3279 48.7799 60.2248V38.4956H44.9735H44.959Z" fill="white"/>
<path d="M73.1414 65.8511V42.3021H76.868C79.9784 42.3021 82.4943 44.8252 82.4943 47.9283V60.2176C82.4943 63.328 79.9712 65.8438 76.868 65.8438M86.308 44.5932L80.1959 38.4811H69.335V69.6503H80.1959L86.308 63.5382V44.5859V44.5932Z" fill="white"/>
<path d="M30.0164 4.07113H35.6427V21.9867C35.6427 25.097 33.1195 27.6129 30.0164 27.6129H22.4761V31.4266H33.3443L39.4563 25.3146V0.264709H30.0164V4.07113Z" fill="white"/>
<path d="M3.82832 0.264709H0.0146484V6.37673V25.3291L6.12667 31.4411H16.9876V27.6274H9.45456C6.34418 27.6274 3.82832 25.1043 3.82832 22.0012V0.264709Z" fill="white"/>
<path d="M22.4688 42.302H29.052V69.5922H32.8657V42.302H39.4417V38.4956H22.4688V42.302Z" fill="white"/>
<path d="M95.617 38.4956H91.8105V69.6647H95.617V38.4956Z" fill="white"/>
<path d="M48.7727 15.0989V0.264709H44.959V31.3758H48.7727V16.5417" fill="white"/>
<path d="M48.7729 15.8456L60.0327 31.4338H64.7309L53.4712 15.8456L64.7309 0.264709H60.0327L48.7729 15.8456Z" fill="white"/>
<path d="M10.1649 69.6647H0.0145006L0 65.8221H10.1649C12.8766 65.8221 15.0662 63.6252 15.0662 60.9208C15.0662 58.2165 12.8693 56.0196 10.1649 56.0196H5.99601L0 50.0454V47.2757C0 42.447 3.91517 38.5319 8.74388 38.5319H16.9802V42.3383H8.71488C6.00326 42.3383 3.81367 44.5351 3.81367 47.2395C3.81367 49.9439 6.01051 52.1407 8.71488 52.1407H12.9128L18.8871 58.1802L18.9088 60.9136C18.9088 65.7423 14.9937 69.6575 10.1649 69.6575" fill="white"/>
</g>
<defs>
<clipPath id="clip0_1239_1270">
<rect width="120" height="69.4" fill="white" transform="translate(0 0.264709)"/>
</clipPath>
</defs>
</svg>
